<svg width="18" height="18" viewBox="0 0 18 18" fill="none" xmlns="http://www.w3.org/2000/svg">
<path d="M11.9999 5H12.0092" stroke="white" stroke-linecap="round" stroke-linejoin="round"/>
<path d="M14 1H4C2.34315 1 1 2.34315 1 4V14C1 15.6569 2.34315 17 4 17H14C15.6569 17 17 15.6569 17 14V4C17 2.34315 15.6569 1 14 1Z" stroke="white" stroke-linecap="round" stroke-linejoin="round"/>
<path d="M1 12L5 7.99995C5.45606 7.56111 5.97339 7.33008 6.5 7.33008C7.02661 7.33008 7.54394 7.56111 8 7.99995L13 13" stroke="white" stroke-linecap="round" stroke-linejoin="round"/>
<path d="M11.0001 11L12.0001 9.99995C12.4562 9.56111 12.9735 9.33008 13.5001 9.33008C14.0267 9.33008 14.5441 9.56111 15.0001 9.99995L17.0001 12" stroke="white" stroke-linecap="round" stroke-linejoin="round"/>
</svg>
