<svg width="28" height="28" viewBox="0 0 28 28" fill="none" xmlns="http://www.w3.org/2000/svg">
<path d="M25.4 27.5L15.95 18.05C15.2 18.65 14.3375 19.125 13.3625 19.475C12.3875 19.825 11.35 20 10.25 20C7.525 20 5.219 19.0565 3.332 17.1695C1.444 15.2815 0.5 12.975 0.5 10.25C0.5 7.525 1.444 5.2185 3.332 3.3305C5.219 1.4435 7.525 0.5 10.25 0.5C12.975 0.5 15.2815 1.4435 17.1695 3.3305C19.0565 5.2185 20 7.525 20 10.25C20 11.35 19.825 12.3875 19.475 13.3625C19.125 14.3375 18.65 15.2 18.05 15.95L27.5 25.4L25.4 27.5ZM10.25 17C12.125 17 13.719 16.344 15.032 15.032C16.344 13.719 17 12.125 17 10.25C17 8.375 16.344 6.781 15.032 5.468C13.719 4.156 12.125 3.5 10.25 3.5C8.375 3.5 6.781 4.156 5.468 5.468C4.156 6.781 3.5 8.375 3.5 10.25C3.5 12.125 4.156 13.719 5.468 15.032C6.781 16.344 8.375 17 10.25 17Z" fill="white"/>
</svg>
